<svg width="16" height="17" viewBox="0 0 16 17" fill="none" xmlns="http://www.w3.org/2000/svg">
<path d="M2 3.16667C2 2.79848 2.29848 2.5 2.66667 2.5H13.3333C13.7015 2.5 14 2.79848 14 3.16667V11.8333C14 12.2015 13.7015 12.5 13.3333 12.5H2.66667C2.29848 12.5 2 12.2015 2 11.8333V3.16667ZM3.33333 3.83333V11.1667H12.6667V3.83333H3.33333Z" fill="#464A53"/>
<path d="M4 13.8465C4 13.4783 4.29848 13.1798 4.66667 13.1798L11.4148 13.1799C11.7829 13.1799 12.0814 13.4783 12.0814 13.8465C12.0814 14.2147 11.7829 14.5132 11.4148 14.5132L4.66667 14.5132C4.29848 14.5132 4 14.2147 4 13.8465Z" fill="#464A53"/>
<path d="M9.58229 7.97931C9.8416 8.2407 10.2637 8.24238 10.5251 7.98307C10.7865 7.72377 10.7882 7.30166 10.5289 7.04027L8.48047 4.97547C8.22116 4.71408 7.79906 4.7124 7.53767 4.9717L5.47286 7.02009C5.21148 7.2794 5.20979 7.7015 5.4691 7.96289C5.72841 8.22428 6.15052 8.22596 6.4119 7.96665L7.34053 7.04541V9.5632C7.34053 9.93139 7.639 10.2299 8.00719 10.2299C8.37538 10.2299 8.67386 9.93139 8.67386 9.5632V7.0636L9.58229 7.97931Z" fill="#464A53"/>
</svg>
