<svg width="16" height="16" viewBox="0 0 16 16" fill="none" xmlns="http://www.w3.org/2000/svg">
<path d="M3.33268 1.33334C2.96449 1.33334 2.66602 1.63182 2.66602 2.00001V14C2.66602 14.3682 2.96449 14.6667 3.33268 14.6667H12.9327C13.3009 14.6667 13.5993 14.3682 13.5993 14V4.83334C13.5993 4.65072 13.5244 4.4761 13.3921 4.35025L10.4128 1.51692C10.2889 1.39907 10.1244 1.33334 9.95337 1.33334H3.33268ZM8.66602 2.66668V5.33334C8.66602 5.70153 8.96449 6.00001 9.33268 6.00001H12.266V13.3333H3.99935V2.66668H8.66602ZM11.79 4.66668H9.99935V2.96374L11.79 4.66668ZM5.06576 8.00001C5.06576 7.63182 5.36423 7.33334 5.73242 7.33334H9.93242C10.3006 7.33334 10.5991 7.63182 10.5991 8.00001C10.5991 8.3682 10.3006 8.66668 9.93242 8.66668H5.73242C5.36423 8.66668 5.06576 8.3682 5.06576 8.00001ZM5.73242 10.4001C5.36423 10.4001 5.06576 10.6986 5.06576 11.0667C5.06576 11.4349 5.36423 11.7334 5.73242 11.7334H8.73242C9.10061 11.7334 9.39909 11.4349 9.39909 11.0667C9.39909 10.6986 9.10061 10.4001 8.73242 10.4001H5.73242Z" fill="#0D53DE"/>
</svg>
