<svg width="16" height="17" viewBox="0 0 16 17" fill="none" xmlns="http://www.w3.org/2000/svg">
<path d="M2 12.9678C2 11.0468 3.49238 9.48955 5.33333 9.48955H10.6667C12.5076 9.48955 14 11.0468 14 12.9678V14.413C14 14.7972 13.7015 15.1087 13.3333 15.1087H2.66667C2.29848 15.1087 2 14.7972 2 14.413V12.9678ZM5.33333 10.8809C4.22876 10.8809 3.33333 11.8152 3.33333 12.9678V13.7174H12.6667V12.9678C12.6667 11.8152 11.7712 10.8809 10.6667 10.8809H5.33333Z" fill="#464A53"/>
<path d="M8 3.2826C6.9011 3.2826 6.01027 4.21216 6.01027 5.35884C6.01027 6.50551 6.9011 7.43507 8 7.43507C9.09889 7.43507 9.98972 6.50551 9.98972 5.35884C9.98972 4.21216 9.09889 3.2826 8 3.2826ZM4.67694 5.35884C4.67694 3.44377 6.16473 1.8913 8 1.8913C9.83527 1.8913 11.3231 3.44377 11.3231 5.35884C11.3231 7.2739 9.83527 8.82638 8 8.82638C6.16473 8.82638 4.67694 7.2739 4.67694 5.35884Z" fill="#464A53"/>
</svg>
