<svg width="16" height="17" viewBox="0 0 16 17" fill="none" xmlns="http://www.w3.org/2000/svg">
<path d="M4.28223 1.67944C3.17766 1.67944 2.28223 2.57488 2.28223 3.67944V12.3109C2.28223 13.4155 3.17766 14.3109 4.28223 14.3109H4.3062C4.67439 14.3109 4.97287 14.0124 4.97287 13.6442C4.97287 13.276 4.67439 12.9776 4.3062 12.9776H4.28223C3.91404 12.9776 3.61556 12.6791 3.61556 12.3109V11.613C3.61556 11.2448 3.91404 10.9464 4.28223 10.9464H12.385V12.9776H10.7432C10.375 12.9776 10.0765 13.276 10.0765 13.6442C10.0765 14.0124 10.375 14.3109 10.7432 14.3109H13.0516C13.4198 14.3109 13.7183 14.0124 13.7183 13.6442V2.34611C13.7183 1.97792 13.4198 1.67944 13.0516 1.67944H4.28223ZM12.385 9.61304H4.28223C4.04847 9.61304 3.82408 9.65314 3.61556 9.72684V3.67944C3.61556 3.31125 3.91404 3.01278 4.28223 3.01278H12.385V9.61304Z" fill="#464A53"/>
<path d="M5.772 12.0792C5.69837 12.0792 5.63867 12.1389 5.63867 12.2125V15.7794C5.63867 15.8906 5.76681 15.9529 5.85431 15.8843L7.44083 14.6394C7.48915 14.6015 7.55712 14.6015 7.60544 14.6394L9.19195 15.8843C9.27945 15.9529 9.40759 15.8906 9.40759 15.7794V12.2125C9.40759 12.1389 9.3479 12.0792 9.27426 12.0792H5.772Z" fill="#464A53"/>
</svg>
